<svg width="1280" height="168" viewBox="0 0 1280 168" fill="none" xmlns="http://www.w3.org/2000/svg">
<path d="M0.985824 165V160.081L20.4147 152.703V14.9792L0.985824 7.60112V2.68241H56.0754C66.7326 2.68241 76.4061 4.07605 85.0958 6.86332C93.7856 9.48663 100.672 13.5036 105.754 18.9142C110.837 24.1608 113.378 30.883 113.378 39.0809C113.378 47.6067 110.509 55.4766 104.771 62.6907C99.1962 69.7409 91.1623 74.8236 80.669 77.9388C95.4252 79.9062 106.902 84.3331 115.1 91.2193C123.298 98.1055 127.397 106.959 127.397 117.78C127.397 126.798 124.528 134.914 118.789 142.128C113.215 149.178 105.59 154.753 95.917 158.852C86.2435 162.951 75.1764 165 62.7157 165H0.985824ZM53.3701 14.2414H39.5977V75.4794H54.8457C66.4867 75.4794 75.7503 72.8561 82.6365 67.6094C89.5227 62.3628 92.9658 54.9847 92.9658 45.4752C92.9658 35.1459 89.6047 27.358 82.8824 22.1113C76.1602 16.8647 66.3228 14.2414 53.3701 14.2414ZM62.7157 87.0384H39.5977V153.687H64.4372C77.3899 153.687 87.7192 150.572 95.4252 144.341C103.131 137.947 106.984 129.913 106.984 120.24C106.984 108.763 103.049 100.401 95.1792 95.1543C87.4732 89.7437 76.6521 87.0384 62.7157 87.0384ZM239.217 167.459C227.74 167.459 217.083 165.41 207.245 161.311C197.572 157.048 189.128 151.228 181.914 143.85C174.864 136.307 169.289 127.454 165.19 117.288C161.255 107.123 159.288 95.974 159.288 83.8412C159.288 71.7084 161.255 60.5593 165.19 50.3939C169.289 40.2286 174.864 31.4569 181.914 24.0788C189.128 16.5368 197.572 10.7163 207.245 6.61738C217.083 2.3545 227.74 0.223057 239.217 0.223057C250.694 0.223057 261.269 2.3545 270.943 6.61738C280.78 10.7163 289.306 16.5368 296.52 24.0788C303.734 31.4569 309.309 40.2286 313.244 50.3939C317.342 60.5593 319.392 71.7084 319.392 83.8412C319.392 95.974 317.342 107.123 313.244 117.288C309.309 127.454 303.734 136.307 296.52 143.85C289.306 151.228 280.78 157.048 270.943 161.311C261.269 165.41 250.694 167.459 239.217 167.459ZM244.382 157.13C255.203 157.13 264.712 154.425 272.91 149.014C281.108 143.604 287.502 135.98 292.093 126.142C296.684 116.305 298.979 104.746 298.979 91.4652C298.979 75.0695 296.11 60.8052 290.371 48.6724C284.633 36.5396 276.927 27.112 267.254 20.3898C257.58 13.6675 246.841 10.3064 235.036 10.3064C224.215 10.3064 214.623 13.0117 206.261 18.4223C197.9 23.6689 191.341 31.211 186.587 41.0484C181.996 50.8858 179.7 62.4448 179.7 75.7253C179.7 92.121 182.57 106.467 188.308 118.764C194.047 130.897 201.753 140.324 211.426 147.047C221.264 153.769 232.249 157.13 244.382 157.13ZM352.597 165V160.081L372.026 152.703V14.9792L352.597 7.60112V2.68241H509.75V7.60112L490.321 14.9792V152.703L509.75 160.081V165H450.971V160.081L471.138 152.703V14.2414H391.209V152.703L411.376 160.081V165H352.597ZM541.612 165V160.081L561.287 152.703V14.9792L541.612 7.60112V2.68241H599.407C618.754 2.68241 634.248 6.20749 645.889 13.2576C657.694 20.3078 663.596 31.4569 663.596 46.7049C663.596 55.7225 660.645 63.7565 654.743 70.8066C648.84 77.6928 640.642 83.1854 630.149 87.2843C619.82 91.3832 608.015 93.4327 594.734 93.4327H580.47V152.703L602.604 160.081V165H541.612ZM580.47 14.2414V81.8737H600.391C613.343 81.8737 623.673 78.8405 631.379 72.7741C639.085 66.5437 642.938 58.5098 642.938 48.6724C642.938 36.5396 639.003 27.7679 631.133 22.3573C623.427 16.9467 612.606 14.2414 598.669 14.2414H580.47ZM773.599 167.459C762.122 167.459 751.465 165.41 741.627 161.311C731.954 157.048 723.51 151.228 716.296 143.85C709.246 136.307 703.671 127.454 699.572 117.288C695.637 107.123 693.67 95.974 693.67 83.8412C693.67 71.7084 695.637 60.5593 699.572 50.3939C703.671 40.2286 709.246 31.4569 716.296 24.0788C723.51 16.5368 731.954 10.7163 741.627 6.61738C751.465 2.3545 762.122 0.223057 773.599 0.223057C785.076 0.223057 795.651 2.3545 805.324 6.61738C815.162 10.7163 823.688 16.5368 830.902 24.0788C838.116 31.4569 843.69 40.2286 847.625 50.3939C851.724 60.5593 853.774 71.7084 853.774 83.8412C853.774 95.974 851.724 107.123 847.625 117.288C843.69 127.454 838.116 136.307 830.902 143.85C823.688 151.228 815.162 157.048 805.324 161.311C795.651 165.41 785.076 167.459 773.599 167.459ZM778.763 157.13C789.585 157.13 799.094 154.425 807.292 149.014C815.49 143.604 821.884 135.98 826.475 126.142C831.066 116.305 833.361 104.746 833.361 91.4652C833.361 75.0695 830.492 60.8052 824.753 48.6724C819.015 36.5396 811.309 27.112 801.635 20.3898C791.962 13.6675 781.223 10.3064 769.418 10.3064C758.597 10.3064 749.005 13.0117 740.643 18.4223C732.282 23.6689 725.723 31.211 720.968 41.0484C716.378 50.8858 714.082 62.4448 714.082 75.7253C714.082 92.121 716.952 106.467 722.69 118.764C728.429 130.897 736.135 140.324 745.808 147.047C755.645 153.769 766.631 157.13 778.763 157.13ZM971.031 167.459C954.8 167.459 940.617 164.016 928.484 157.13C916.516 150.244 907.17 140.816 900.448 128.847C893.889 116.879 890.61 103.352 890.61 88.2681C890.61 76.2992 892.824 64.9861 897.251 54.3289C901.677 43.6717 907.744 34.3261 915.45 26.2922C923.32 18.0944 932.337 11.7001 942.503 7.10926C952.668 2.51846 963.489 0.223057 974.966 0.223057C983 0.223057 989.804 0.796904 995.379 1.9446C1001.12 2.92835 1006.2 4.32199 1010.63 6.12551C1015.22 7.92904 1019.81 9.89652 1024.4 12.028L1025.38 53.0992H1020.71L1007.92 23.8329C1001.53 19.406 995.789 16.1269 990.706 13.9955C985.623 11.7001 979.967 10.5524 973.737 10.5524C961.276 10.5524 950.209 13.5856 940.535 19.652C931.026 25.7184 923.484 33.9982 917.909 44.4915C912.335 54.9847 909.547 66.7897 909.547 79.9062C909.547 95.6461 912.335 109.337 917.909 120.978C923.484 132.455 930.944 141.308 940.289 147.539C949.799 153.769 960.456 156.884 972.261 156.884C980.623 156.884 987.755 155.736 993.657 153.441C999.56 151.146 1004.81 148.44 1009.4 145.325L1023.66 117.288H1028.09L1025.63 155.409C1020.87 157.868 1015.96 159.999 1010.87 161.803C1005.95 163.606 1000.3 165 993.903 165.984C987.673 166.967 980.049 167.459 971.031 167.459ZM1129.59 165H1066.63V160.081L1086.06 152.703V14.9792L1066.63 7.60112V2.68241H1129.59V7.60112L1105.24 14.9792V70.5607H1129.59C1150.25 70.5607 1166.4 74.6596 1178.04 82.8575C1189.68 91.0553 1195.5 101.876 1195.5 115.321C1195.5 124.83 1192.87 133.356 1187.63 140.898C1182.38 148.276 1174.84 154.179 1165 158.606C1155.16 162.869 1143.36 165 1129.59 165ZM1128.11 82.1197H1105.24V153.441H1129.59C1145 153.441 1156.39 150.162 1163.77 143.604C1171.31 136.881 1175.08 128.274 1175.08 117.78C1175.08 105.32 1171.31 96.302 1163.77 90.7274C1156.23 84.9889 1144.34 82.1197 1128.11 82.1197ZM1221.07 165V160.081L1240.5 152.703V14.9792L1221.07 7.60112V2.68241H1279.12V7.60112L1259.69 14.9792V152.703L1279.12 160.081V165H1221.07Z" fill="#5E5C5A" fill-opacity="0.03"/>
</svg>
